#!OML:ASF F:\VICON\USERDATA\INSTALL\rory3\rory3.ASF
:FULLY-SPECIFIED
:DEGREES
283
root 4.64223 17.3721 3.12311 15.6119 -21.0324 -3.1794
lowerback -4.06857 3.51793 2.84334
upperback -8.05802 4.66068 -0.0688986
thorax -5.87325 2.14026 -1.69565
lowerneck -11.7312 2.54433 0.960963
upperneck 43.2578 3.12528 0.830717
head 18.1376 1.4558 0.75492
rclavicle 3.13707e-015 -1.02126e-014
rhumerus 18.5933 -14.0151 -11.5515
rradius 114.236
rwrist -53.6834
rhand -8.39766 -47.8174
rfingers 7.12502
rthumb 17.5262 -77.0474
lclavicle 3.13707e-015 -1.02126e-014
lhumerus 35.0846 30.5885 5.51717
lradius 64.8541
lwrist 83.8058
lhand -26.8022 -34.0445
lfingers 7.12502
lthumb -0.229053 -4.06489
rfemur -32.6671 -13.9658 1.3936
rtibia 31.0432
rfoot 6.59474 -36.3177
rtoes 27.4102
lfemur -25.4591 5.01669 -28.7587
ltibia 26.3229
lfoot -15.7406 13.2069
ltoes 18.0186
284
root 4.64988 17.3773 3.12743 15.704 -20.9974 -3.35746
lowerback -4.26203 3.51034 3.03405
upperback -7.96717 4.64247 -0.0136201
thorax -5.65783 2.12733 -1.72662
lowerneck -11.9457 2.57862 1.19706
upperneck 43.4131 3.23793 0.523235
head 18.3087 1.49435 0.594929
rclavicle -7.2106e-015 -7.15625e-015
rhumerus 18.8265 -13.9555 -11.7891
rradius 114.154
rwrist -53.6231
rhand -8.31516 -47.7654
rfingers 7.12502
rthumb 17.6056 -76.9883
lclavicle -7.2106e-015 -7.15625e-015
lhumerus 35.0847 30.6571 5.76524
lradius 65.1154
lwrist 84.2024
lhand -25.5619 -16.8269
lfingers 7.12502
lthumb 0.968896 13.1506
rfemur -33.0035 -13.9586 1.6704
rtibia 31.0878
rfoot 4.54156 -36.6851
rtoes 30.955
lfemur -25.514 5.19626 -28.652
ltibia 26.3485
lfoot -15.6555 13.0831
ltoes 17.7895
285
root 4.65741 17.3806 3.13097 15.723 -20.9184 -3.46536
lowerback -4.2652 3.48145 3.12976
upperback -8.00528 4.60631 0.0487133
thorax -5.6971 2.1044 -1.71626
lowerneck -11.5297 2.59496 1.18451
upperneck 43.3679 3.32295 0.39902
head 18.1711 1.51204 0.544707
rclavicle 2.97121e-014 3.1085e-014
rhumerus 18.9296 -13.6437 -11.9111
rradius 114.093
rwrist -53.4635
rhand -8.65063 -47.8025
rfingers 7.12502
rthumb 17.2827 -77.0541
lclavicle 2.97121e-014 3.1085e-014
lhumerus 34.8902 30.2981 5.70903
lradius 65.3201
lwrist 84.8412
lhand -26.3437 -21.1993
lfingers 7.12502
lthumb 0.213764 8.78038
rfemur -33.3056 -14.1217 1.95036
rtibia 31.1327
rfoot 3.68486 -36.931
rtoes 32.5927
lfemur -25.5166 5.14388 -28.5577
ltibia 26.3709
lfoot -15.606 13.12
ltoes 17.6138
286
root 4.66648 17.3752 3.12835 15.6604 -20.8306 -3.36363
lowerback -4.09587 3.42399 3.04993
upperback -8.11609 4.5389 0.0451755
thorax -5.92072 2.06919 -1.6916
lowerneck -11.0192 2.57503 1.0632
upperneck 43.3036 3.30444 0.452593
head 17.9878 1.49491 0.576813
rclavicle -3.20191e-014 6.33626e-016
rhumerus 18.8638 -13.2799 -11.9051
rradius 114.156
rwrist -53.4349
rhand -8.28349 -47.8523
rfingers 7.12502
rthumb 17.636 -77.0725
lclavicle -3.20191e-014 6.33626e-016
lhumerus 34.7995 29.9272 5.82673
lradius 65.4603
lwrist 85.3675
lhand -25.9203 -22.7966
lfingers 7.12502
lthumb 0.62271 7.18226
rfemur -33.6806 -14.3786 2.05663
rtibia 31.2203
rfoot 4.27635 -36.8452
rtoes 32.226
lfemur -25.4954 4.91424 -28.6691
ltibia 26.3908
lfoot -15.496 13.2669
ltoes 17.1538
287
root 4.67552 17.3694 3.13132 15.5445 -20.881 -3.17217
lowerback -4.0691 3.39103 2.89518
upperback -8.11192 4.49457 0.0131217
thorax -5.94158 2.05468 -1.64095
lowerneck -11.0343 2.5441 1.05367
upperneck 43.4707 3.25603 0.451479
head 18.0937 1.47012 0.571968
rclavicle 2.16272e-014 1.88348e-014
rhumerus 18.7604 -13.0228 -11.7725
rradius 114.279
rwrist -53.5289
rhand -7.6288 -47.6544
rfingers 7.12502
rthumb 18.266 -76.8168
lclavicle 2.16272e-014 1.88348e-014
lhumerus 34.6405 29.606 5.90736
lradius 65.7065
lwrist 85.5545
lhand -25.7051 -23.3648
lfingers 7.12502
lthumb 0.83059 6.61333
rfemur -34.0416 -14.4985 1.98683
rtibia 31.3402
rfoot 2.98877 -36.9312
rtoes 32.6035
lfemur -25.4183 4.69043 -28.8975
ltibia 26.4225
lfoot -15.7384 13.6003
ltoes 17.1031
288
root 4.68119 17.368 3.1336 15.3799 -20.9387 -3.01616
lowerback -4.0862 3.36927 2.71721
upperback -7.99206 4.46335 0.0130124
thorax -5.81675 2.05334 -1.53701
lowerneck -11.231 2.46866 1.02617
upperneck 43.579 3.1743 0.376238
head 18.2153 1.4187 0.532071
rclavicle -1.45643e-014 -1.1368e-014
rhumerus 18.8184 -12.9384 -11.7617
rradius 114.313
rwrist -53.6498
rhand -7.81442 -47.4208
rfingers 7.12502
rthumb 18.0874 -76.5998
lclavicle -1.45643e-014 -1.1368e-014
lhumerus 34.6805 29.7562 6.26365
lradius 65.9425
lwrist 86.1246
lhand -24.3134 -20.5884
lfingers 7.12502
lthumb 2.17464 9.38022
rfemur -34.3639 -14.4651 1.93552
rtibia 31.4522
rfoot 4.35801 -36.8356
rtoes 32.689
lfemur -25.3226 4.48624 -29.0461
ltibia 26.4731
lfoot -15.7963 13.8475
ltoes 17.7122
289
root 4.6858 17.3668 3.13095 15.2652 -20.8193 -3.06746
lowerback -4.0233 3.31225 2.76541
upperback -7.86835 4.38983 0.059414
thorax -5.72321 2.01851 -1.51463
lowerneck -11.3698 2.42994 1.00296
upperneck 43.599 3.13904 0.326932
head 18.2662 1.39214 0.509333
rclavicle 1.79151e-014 -2.72087e-015
rhumerus 19.0267 -13.0506 -11.9973
rradius 114.288
rwrist -53.912
rhand -7.68059 -47.7942
rfingers 7.12502
rthumb 18.2162 -76.9612
lclavicle 1.79151e-014 -2.72087e-015
lhumerus 34.6898 29.7168 6.46488
lradius 66.1499
lwrist 86.221
lhand -24.1564 -20.5685
lfingers 7.12502
lthumb 2.32632 9.39858
rfemur -34.6468 -14.4307 2.14888
rtibia 31.5465
rfoot 5.75086 -36.7623
rtoes 31.2991
lfemur -25.22 4.25899 -28.9495
ltibia 26.5142
lfoot -15.6687 13.9899
ltoes 17.8804
290
root 4.69177 17.365 3.13052 15.2364 -20.6691 -3.28349
lowerback -4.0084 3.26194 3.02166
upperback -7.77361 4.32367 0.124832
thorax -5.62099 1.97599 -1.58556
lowerneck -11.4881 2.45714 1.06578
upperneck 43.6874 3.17308 0.299465
head 18.3566 1.41021 0.494454
rclavicle 2.90424e-014 1.4474e-014
rhumerus 19.0968 -13.066 -12.119
rradius 114.31
rwrist -54.3044
rhand -6.95087 -48.4085
rfingers 7.12502
rthumb 18.9181 -77.5086
lclavicle 2.90424e-014 1.4474e-014
lhumerus 34.5151 29.2829 6.33958
lradius 66.4256
lwrist 85.9467
lhand -25.5767 -25.4427
lfingers 7.12502
lthumb 0.954538 4.53487
rfemur -34.8898 -14.3675 2.51158
rtibia 31.6187
rfoot 5.79567 -36.7369
rtoes 31.5362
lfemur -25.1205 3.97216 -28.6842
ltibia 26.5425
lfoot -15.6272 14.2201
ltoes 17.8898
291
root 4.6981 17.361 3.12727 15.1964 -20.5614 -3.29625
lowerback -4.03333 3.22501 3.0855
upperback -7.69411 4.27178 0.12551
thorax -5.52001 1.94952 -1.61554
lowerneck -11.567 2.42354 1.14034
upperneck 43.7435 3.14566 0.182684
head 18.4191 1.39393 0.422581
rclavicle -3.74468e-016 1.43342e-014
rhumerus 19.045 -12.9043 -12.1437
rradius 114.28
rwrist -54.2965
rhand -6.99621 -48.5043
rfingers 7.12502
rthumb 18.8745 -77.6086
lclavicle -3.74468e-016 1.43342e-014
lhumerus 34.6136 29.2623 6.61252
lradius 66.6825
lwrist 86.3759
lhand -25.4882 -27.869
lfingers 7.12502
lthumb 1.04007 2.10825
rfemur -35.176 -14.3197 2.63508
rtibia 31.6683
rfoot 5.75661 -36.1649
rtoes 31.6765
lfemur -25.089 3.72316 -28.6481
ltibia 26.5881
lfoot -15.7106 14.397
ltoes 18.0478
292
root 4.70513 17.3585 3.1247 15.1138 -20.4332 -3.2198
lowerback -3.98994 3.1877 3.0949
upperback -7.62683 4.22158 0.0929309
thorax -5.47188 1.92479 -1.65461
lowerneck -11.4511 2.3613 1.12711
upperneck 43.62 3.09267 0.0839583
head 18.3123 1.35879 0.364835
rclavicle 1.79739e-014 2.23656e-014
rhumerus 19.0866 -12.8109 -12.3515
rradius 114.217
rwrist -54.1691
rhand -7.78823 -48.4855
rfingers 7.12502
rthumb 18.1126 -77.6622
lclavicle 1.79739e-014 2.23656e-014
lhumerus 35.0069 29.4822 7.28056
lradius 66.9313
lwrist 86.4924
lhand -25.1764 -24.2241
lfingers 7.12502
lthumb 1.34118 5.75146
rfemur -35.4783 -14.3854 2.71682
rtibia 31.7114
rfoot 5.18402 -34.8941
rtoes 32.3956
lfemur -25.0389 3.54508 -28.717
ltibia 26.6323
lfoot -15.7109 14.474
ltoes 17.852
293
root 4.71425 17.359 3.12637 15.0462 -20.3682 -3.34376
lowerback -3.9054 3.20756 3.3387
upperback -7.55911 4.24972 0.0827217
thorax -5.42956 1.92689 -1.80254
lowerneck -11.144 2.28686 0.95044
upperneck 43.3865 2.98532 0.182487
head 18.0757 1.30406 0.41587
rclavicle 4.10809e-015 -1.2921e-014
rhumerus 19.1122 -12.7603 -12.5332
rradius 114.21
rwrist -54.2428
rhand -8.33804 -48.5999
rfingers 7.12502
rthumb 17.5836 -77.8248
lclavicle 4.10809e-015 -1.2921e-014
lhumerus 35.59 29.8914 8.13178
lradius 67.3553
lwrist 86.2661
lhand -25.4239 -15.9459
lfingers 7.12502
lthumb 1.10216 14.031
rfemur -35.7663 -14.4512 3.05147
rtibia 31.7562
rfoot 10.1462 -35.3936
rtoes 28.4298
lfemur -24.9308 3.40392 -28.5834
ltibia 26.6756
lfoot -15.6912 14.63
ltoes 17.3533
294
root 4.72255 17.3587 3.11932 14.9383 -20.4129 -3.43043
lowerback -3.71795 3.24934 3.49187
upperback -7.51014 4.31297 0.0718484
thorax -5.46937 1.94955 -1.90827
lowerneck -10.8838 2.20506 0.758018
upperneck 43.2565 2.86547 0.29288
head 17.9174 1.24143 0.474976
rclavicle 1.3852e-014 -1.21756e-015
rhumerus 19.0163 -12.51 -12.5124
rradius 114.171
rwrist -53.9752
rhand -8.51933 -48.3157
rfingers 7.12502
rthumb 17.4091 -77.5561
lclavicle 1.3852e-014 -1.21756e-015
lhumerus 35.4488 29.1869 8.02527
lradius 67.4596
lwrist 86.4516
lhand -25.5265 -22.7753
lfingers 7.12502
lthumb 1.00306 7.20207
rfemur -36.0599 -14.2956 3.27474
rtibia 31.8037
rfoot 10.0458 -35.9323
rtoes 28.4563
lfemur -24.8421 3.35374 -28.4926
ltibia 26.7291
lfoot -15.6846 14.7757
ltoes 17.1371
295
root 4.72765 17.3555 3.1035 14.8416 -20.4843 -3.40548
lowerback -3.45589 3.23412 3.41248
upperback -7.48305 4.30558 0.0918985
thorax -5.59618 1.94837 -1.8591
lowerneck -10.7926 2.16684 0.658497
upperneck 43.2144 2.84304 0.267899
head 17.8655 1.21259 0.475007
rclavicle 3.16266e-014 3.33648e-014
rhumerus 19.0048 -12.2251 -12.5549
rradius 114.119
rwrist -53.7103
rhand -8.52657 -48.1224
rfingers 7.12502
rthumb 17.4021 -77.3634
lclavicle 3.16266e-014 3.33648e-014
lhumerus 35.4948 28.9634 8.3102
lradius 67.6785
lwrist 86.3214
lhand -25.8514 -24.6427
lfingers 7.12502
lthumb 0.689274 5.33594
rfemur -36.507 -13.9367 3.35363
rtibia 31.8902
rfoot 9.9678 -36.0115
rtoes 30.2231
lfemur -24.8447 3.34361 -28.5104
ltibia 26.7649
lfoot -15.5837 14.81
ltoes 17.5218
296
root 4.7314 17.352 3.09482 14.8021 -20.5934 -3.37826
lowerback -3.41168 3.19478 3.3028
upperback -7.36434 4.25377 0.122508
thorax -5.50654 1.93288 -1.76494
lowerneck -10.9329 2.16689 0.61135
upperneck 43.2372 2.87536 0.216802
head 17.9173 1.20839 0.467476
rclavicle 3.05151e-015 8.85368e-015
rhumerus 19.141 -12.1572 -12.7604
rradius 114.139
rwrist -53.7922
rhand -8.21061 -48.3066
rfingers 7.12502
rthumb 17.7062 -77.5204
lclavicle 3.05151e-015 8.85368e-015
lhumerus 35.7037 29.5157 8.83669
lradius 68.0373
lwrist 86.5038
lhand -25.3272 -19.7538
lfingers 7.12502
lthumb 1.19554 10.2226
rfemur -36.9683 -13.4741 3.38652
rtibia 31.9488
rfoot 11.6226 -35.0682
rtoes 27.3009
lfemur -24.8942 3.35144 -28.5494
ltibia 26.8113
lfoot -15.4863 14.8799
ltoes 17.7083
297
root 4.73691 17.3553 3.09663 14.808 -20.7023 -3.34574
lowerback -3.63633 3.18912 3.26609
upperback -7.18858 4.23226 0.116648
thorax -5.19479 1.93266 -1.73033
lowerneck -11.1335 2.13992 0.4995
upperneck 43.3404 2.84261 0.267312
head 18.0299 1.17972 0.509691
rclavicle 1.379e-014 -2.39202e-015
rhumerus 19.2793 -12.0953 -12.9792
rradius 114.146
rwrist -53.6764
rhand -8.30183 -48.2544
rfingers 7.12502
rthumb 17.6184 -77.4762
lclavicle 1.379e-014 -2.39202e-015
lhumerus 35.0257 28.687 8.03181
lradius 68.1496
lwrist 86.5402
lhand -25.2568 -26.6501
lfingers 7.12502
lthumb 1.26356 3.32587
rfemur -37.2728 -12.9843 3.27511
rtibia 32.0655
rfoot 4.9675 -36.9146
rtoes 34.3649
lfemur -24.9122 3.4022 -28.626
ltibia 26.7987
lfoot -15.4985 14.96
ltoes 17.338
